# xmcd
#
# Track frame offsets:
# 150
# 16652
# 35597
# 50746
# 70071
# 90136
# 105546
# 120435
# 139877
# 156074
# 172167
# 191426
# 204454
# 222310
# 239874
# 256212
# 273036
# 285795
# 302392
# 322894
# 339007
#
# Disc length: 4720 seconds
#
# Revision: 0
# Processed by: cddbd v1.5.2PL0 Copyright (c) Steve Scherf et al.
# Submitted via: Audion 3.0.2 (http://www.panic.com/audion/)
#
DISCID=16126e15
DTITLE=Various Artist - Rockish
DYEAR=1900
DGENRE=
TTITLE0=Is she really going out with him - joe Jackson
TTITLE1=America - Razorlight
TTITLE2=When the sun goes down - Arctic Monkeys
TTITLE3=Hard to Beat - Hard-Fi
TTITLE4=Chasing Cars - Snowpatrol
TTITLE5=Naive - The Kooks
TTITLE6=California - Phantom planet
TTITLE7=Breakfast at Tiffany's - Deep blue something
TTITLE8=Are you going to be my girl
TTITLE9=Bohemian like you
TTITLE10=Bright Idea
TTITLE11=No Tomorrow
TTITLE12=Happiness
TTITLE13=Already over
TTITLE14=Love it when you call
TTITLE15=In the morning
TTITLE16=She moves in her own way
TTITLE17=Fill my little world
TTITLE18=Country girl 
TTITLE19=Confusion
TTITLE20=Remember Me
EXTD=
EXTT0=
EXTT1=
EXTT2=
EXTT3=
EXTT4=
EXTT5=
EXTT6=
EXTT7=
EXTT8=
EXTT9=
EXTT10=
EXTT11=
EXTT12=
EXTT13=
EXTT14=
EXTT15=
EXTT16=
EXTT17=
EXTT18=
EXTT19=
EXTT20=
PLAYORDER=
